<svg width="35" height="29" viewBox="0 0 35 29" fill="none" xmlns="http://www.w3.org/2000/svg">
<path d="M34.3451 0.0271055C34.3451 8.72767 34.3451 17.4272 34.3451 26.1277C34.3325 26.1456 34.3094 26.1614 34.3073 26.1803C34.1004 27.6235 32.8388 28.6435 31.2338 28.6382C23.0732 28.6151 14.9115 28.6277 6.75081 28.6267C4.8191 28.6267 3.2897 27.4828 2.73614 25.6393C1.91787 22.9135 1.09224 20.1908 0.279224 17.4639C-0.346822 15.3642 0.0817465 13.4934 1.54602 11.8642C4.05755 9.07115 6.55123 6.26235 9.09113 3.49452C11.1646 1.23718 13.7707 0.0407609 16.84 0.020803C22.5417 -0.0180622 28.2433 0.0092485 33.9449 0.0102989C34.0783 0.0102989 34.2117 0.020803 34.3451 0.0271055ZM31.4523 12.8757C31.4523 9.52388 31.4523 6.20878 31.4523 2.87687C31.3409 2.87162 31.2527 2.86322 31.1655 2.86322C26.3347 2.86217 21.5028 2.8275 16.673 2.87897C14.6247 2.90103 12.8138 3.713 11.4146 5.20459C9.14365 7.62683 6.95774 10.1289 4.73717 12.5984C4.66784 12.6762 4.60587 12.7602 4.51343 12.8757C13.5228 12.8757 22.4744 12.8757 31.4523 12.8757ZM25.7696 18.5931C27.6813 18.5931 29.5647 18.5931 31.4544 18.5931C31.4544 17.6404 31.4544 16.7087 31.4544 15.7654C29.5479 15.7654 27.6656 15.7654 25.7696 15.7654C25.7696 16.7139 25.7696 17.6394 25.7696 18.5931Z" fill="black"/>
</svg>
