<svg width="32" height="29" viewBox="0 0 32 29" fill="none" xmlns="http://www.w3.org/2000/svg">
<path d="M32 5.02832C32 11.877 32 18.7264 32 25.5751C31.9843 25.6132 31.9624 25.6505 31.9554 25.6894C31.6814 27.1292 30.5918 28.0537 29.1077 28.0544C20.3705 28.0599 11.6342 28.0614 2.89699 28.0451C2.46413 28.0443 1.99604 27.9417 1.60544 27.7574C0.482963 27.2326 0 26.2865 0 25.0752C0.00078276 18.5072 0 11.9392 0 5.37196C0 5.28644 0 5.20014 0 5.11462C0.0821898 5.19236 0.112717 5.27555 0.140897 5.3603C1.19684 8.50435 2.25278 11.6484 3.30951 14.7925C3.77603 16.1802 4.76074 16.8846 6.23859 16.8854C7.81116 16.8862 9.38372 16.8854 10.9563 16.8854C11.0674 16.8854 11.1778 16.8854 11.3124 16.8854C11.3124 17.1878 11.3101 17.4553 11.3132 17.722C11.3203 18.3688 11.6929 18.7459 12.3426 18.7466C14.7793 18.7498 17.216 18.7498 19.6527 18.7466C20.3048 18.7459 20.6789 18.3711 20.6868 17.7266C20.6899 17.4522 20.6876 17.1769 20.6876 16.8854C20.8441 16.8854 20.9576 16.8854 21.0703 16.8854C22.6218 16.8854 24.1732 16.8854 25.7254 16.8854C27.2494 16.8854 28.2169 16.195 28.6968 14.7668C29.7566 11.6126 30.8149 8.45848 31.8763 5.3051C31.9076 5.20947 31.9577 5.12084 32 5.02832Z" fill="#1A141F"/>
<path d="M20.6875 15.0228C20.6875 14.7165 20.6907 14.4397 20.6868 14.1629C20.6774 13.5534 20.3024 13.1639 19.6966 13.1631C17.2285 13.1584 14.7597 13.1584 12.2909 13.1639C11.7015 13.1654 11.3257 13.5549 11.314 14.1458C11.3085 14.4241 11.3132 14.7025 11.3132 15.0002C11.2185 15.0088 11.1394 15.0228 11.0604 15.0228C9.43538 15.0243 7.81115 15.0251 6.18614 15.0228C5.59594 15.022 5.29849 14.8175 5.11298 14.2655C3.96232 10.847 2.81636 7.42698 1.66962 4.0077C1.65709 3.9696 1.64692 3.93073 1.625 3.85687C4.23159 3.85687 6.81626 3.85687 9.46042 3.85687C9.46042 3.43626 9.42207 3.04287 9.46747 2.6588C9.64281 1.16685 10.7496 0.146042 12.2572 0.132047C14.7566 0.108723 17.2567 0.104836 19.7561 0.133602C21.3623 0.152261 22.5216 1.35189 22.5607 2.94957C22.5677 3.23723 22.5615 3.52489 22.5615 3.8491C23.8836 3.8491 25.1822 3.8491 26.48 3.8491C27.7692 3.8491 29.0592 3.8491 30.3836 3.8491C30.0767 4.76961 29.7809 5.65981 29.4826 6.54922C28.6349 9.07675 27.7856 11.6043 26.9371 14.1318C26.6999 14.8378 26.4471 15.022 25.7074 15.0228C24.1552 15.0228 22.6037 15.0228 21.0515 15.0228C20.9396 15.0228 20.8284 15.0228 20.6875 15.0228ZM20.6875 3.8351C20.6875 3.56143 20.6883 3.32353 20.6875 3.08641C20.6852 2.34082 20.3306 1.98863 19.5768 1.98785C18.1303 1.9863 16.6845 1.98785 15.238 1.98785C14.2603 1.98785 13.2819 1.98396 12.3042 1.98941C11.8181 1.99174 11.4314 2.24597 11.3617 2.68446C11.3023 3.06075 11.3492 3.45414 11.3492 3.83588C14.4607 3.8351 17.5581 3.8351 20.6875 3.8351Z" fill="#1A141F"/>
<path d="M18.7936 16.871C16.9322 16.871 15.0833 16.871 13.2109 16.871C13.2109 16.27 13.2109 15.6675 13.2109 15.0439C15.0629 15.0439 16.9197 15.0439 18.7936 15.0439C18.7936 15.6504 18.7936 16.2529 18.7936 16.871Z" fill="#1A141F"/>
</svg>
